<mxfile host="app.diagrams.net" agent="Mozilla/5.0 (Windows NT 10.0; Win64; x64) AppleWebKit/537.36 (KHTML, like Gecko) Chrome/135.0.0.0 Safari/537.36 Edg/135.0.0.0" version="26.2.9">
  <diagram name="第 1 页" id="AQze4bfjTyh8KwDd6VoC">
    <mxGraphModel dx="1512" dy="670" grid="0" gridSize="10" guides="1" tooltips="1" connect="1" arrows="1" fold="1" page="1" pageScale="1" pageWidth="827" pageHeight="1169" math="0" shadow="0">
      <root>
        <mxCell id="0" />
        <mxCell id="1" parent="0" />
        <mxCell id="OQ86It6bN96dn9Ywe_t_-31" style="edgeStyle=orthogonalEdgeStyle;rounded=0;orthogonalLoop=1;jettySize=auto;html=1;exitX=1;exitY=0.5;exitDx=0;exitDy=0;entryX=0;entryY=0.5;entryDx=0;entryDy=0;" edge="1" parent="1" source="OQ86It6bN96dn9Ywe_t_-1" target="OQ86It6bN96dn9Ywe_t_-2">
          <mxGeometry relative="1" as="geometry" />
        </mxCell>
        <mxCell id="OQ86It6bN96dn9Ywe_t_-1" value="开始" style="whiteSpace=wrap;strokeWidth=2;fontFamily=宋体;fontSource=https%3A%2F%2Ffonts.googleapis.com%2Fcss%3Ffamily%3D%25E5%25AE%258B%25E4%25BD%2593;fontSize=12;flipH=1;rounded=1;fontStyle=0;align=center;verticalAlign=middle;" vertex="1" parent="1">
          <mxGeometry x="63" y="25" width="120" height="50" as="geometry" />
        </mxCell>
        <mxCell id="OQ86It6bN96dn9Ywe_t_-32" style="edgeStyle=orthogonalEdgeStyle;rounded=0;orthogonalLoop=1;jettySize=auto;html=1;exitX=1;exitY=0.5;exitDx=0;exitDy=0;entryX=0;entryY=0.5;entryDx=0;entryDy=0;" edge="1" parent="1" source="OQ86It6bN96dn9Ywe_t_-2" target="OQ86It6bN96dn9Ywe_t_-3">
          <mxGeometry relative="1" as="geometry" />
        </mxCell>
        <mxCell id="OQ86It6bN96dn9Ywe_t_-2" value="确定采样点" style="whiteSpace=wrap;strokeWidth=2;fontFamily=宋体;fontSource=https%3A%2F%2Ffonts.googleapis.com%2Fcss%3Ffamily%3D%25E5%25AE%258B%25E4%25BD%2593;fontSize=12;flipH=1;rounded=1;fontStyle=0;align=center;verticalAlign=middle;" vertex="1" parent="1">
          <mxGeometry x="216" y="25" width="120" height="50" as="geometry" />
        </mxCell>
        <mxCell id="OQ86It6bN96dn9Ywe_t_-33" style="edgeStyle=orthogonalEdgeStyle;rounded=0;orthogonalLoop=1;jettySize=auto;html=1;exitX=1;exitY=0.5;exitDx=0;exitDy=0;entryX=0;entryY=0.5;entryDx=0;entryDy=0;" edge="1" parent="1" source="OQ86It6bN96dn9Ywe_t_-3" target="OQ86It6bN96dn9Ywe_t_-4">
          <mxGeometry relative="1" as="geometry" />
        </mxCell>
        <mxCell id="OQ86It6bN96dn9Ywe_t_-3" value="确定均值函数" style="whiteSpace=wrap;strokeWidth=2;fontFamily=宋体;fontSource=https%3A%2F%2Ffonts.googleapis.com%2Fcss%3Ffamily%3D%25E5%25AE%258B%25E4%25BD%2593;fontSize=12;flipH=1;rounded=1;fontStyle=0;align=center;verticalAlign=middle;" vertex="1" parent="1">
          <mxGeometry x="372" y="25" width="120" height="50" as="geometry" />
        </mxCell>
        <mxCell id="OQ86It6bN96dn9Ywe_t_-34" style="edgeStyle=orthogonalEdgeStyle;rounded=0;orthogonalLoop=1;jettySize=auto;html=1;exitX=0.5;exitY=1;exitDx=0;exitDy=0;entryX=0.5;entryY=0;entryDx=0;entryDy=0;" edge="1" parent="1" source="OQ86It6bN96dn9Ywe_t_-4" target="OQ86It6bN96dn9Ywe_t_-5">
          <mxGeometry relative="1" as="geometry" />
        </mxCell>
        <mxCell id="OQ86It6bN96dn9Ywe_t_-4" value="确定协方差函数" style="whiteSpace=wrap;strokeWidth=2;fontFamily=宋体;fontSource=https%3A%2F%2Ffonts.googleapis.com%2Fcss%3Ffamily%3D%25E5%25AE%258B%25E4%25BD%2593;fontSize=12;flipH=1;rounded=1;fontStyle=0;align=center;verticalAlign=middle;" vertex="1" parent="1">
          <mxGeometry x="534" y="25" width="120" height="50" as="geometry" />
        </mxCell>
        <mxCell id="OQ86It6bN96dn9Ywe_t_-35" style="edgeStyle=orthogonalEdgeStyle;rounded=0;orthogonalLoop=1;jettySize=auto;html=1;exitX=0;exitY=0.5;exitDx=0;exitDy=0;entryX=1;entryY=0.5;entryDx=0;entryDy=0;" edge="1" parent="1" source="OQ86It6bN96dn9Ywe_t_-5" target="OQ86It6bN96dn9Ywe_t_-6">
          <mxGeometry relative="1" as="geometry" />
        </mxCell>
        <mxCell id="OQ86It6bN96dn9Ywe_t_-5" value="计算后验概率" style="whiteSpace=wrap;strokeWidth=2;fontFamily=宋体;fontSource=https%3A%2F%2Ffonts.googleapis.com%2Fcss%3Ffamily%3D%25E5%25AE%258B%25E4%25BD%2593;fontSize=12;rounded=1;fontStyle=0;align=center;verticalAlign=middle;" vertex="1" parent="1">
          <mxGeometry x="534" y="134" width="120" height="50" as="geometry" />
        </mxCell>
        <mxCell id="OQ86It6bN96dn9Ywe_t_-36" style="edgeStyle=orthogonalEdgeStyle;rounded=0;orthogonalLoop=1;jettySize=auto;html=1;exitX=0;exitY=0.5;exitDx=0;exitDy=0;entryX=1;entryY=0.5;entryDx=0;entryDy=0;" edge="1" parent="1" source="OQ86It6bN96dn9Ywe_t_-6" target="OQ86It6bN96dn9Ywe_t_-7">
          <mxGeometry relative="1" as="geometry" />
        </mxCell>
        <mxCell id="OQ86It6bN96dn9Ywe_t_-6" value="确定预测点" style="whiteSpace=wrap;strokeWidth=2;fontFamily=宋体;fontSource=https%3A%2F%2Ffonts.googleapis.com%2Fcss%3Ffamily%3D%25E5%25AE%258B%25E4%25BD%2593;fontSize=12;rounded=1;fontStyle=0;align=center;verticalAlign=middle;" vertex="1" parent="1">
          <mxGeometry x="372" y="134" width="120" height="50" as="geometry" />
        </mxCell>
        <mxCell id="OQ86It6bN96dn9Ywe_t_-37" style="edgeStyle=orthogonalEdgeStyle;rounded=0;orthogonalLoop=1;jettySize=auto;html=1;exitX=0;exitY=0.5;exitDx=0;exitDy=0;entryX=1;entryY=0.5;entryDx=0;entryDy=0;" edge="1" parent="1" source="OQ86It6bN96dn9Ywe_t_-7" target="OQ86It6bN96dn9Ywe_t_-8">
          <mxGeometry relative="1" as="geometry" />
        </mxCell>
        <mxCell id="OQ86It6bN96dn9Ywe_t_-7" value="最大似然求解超参数" style="whiteSpace=wrap;strokeWidth=2;fontFamily=宋体;fontSource=https%3A%2F%2Ffonts.googleapis.com%2Fcss%3Ffamily%3D%25E5%25AE%258B%25E4%25BD%2593;fontSize=12;rounded=1;fontStyle=0;align=center;verticalAlign=middle;" vertex="1" parent="1">
          <mxGeometry x="216" y="134" width="120" height="50" as="geometry" />
        </mxCell>
        <mxCell id="OQ86It6bN96dn9Ywe_t_-8" value="结束" style="whiteSpace=wrap;strokeWidth=2;fontFamily=宋体;fontSource=https%3A%2F%2Ffonts.googleapis.com%2Fcss%3Ffamily%3D%25E5%25AE%258B%25E4%25BD%2593;fontSize=12;rounded=1;fontStyle=0;align=center;verticalAlign=middle;" vertex="1" parent="1">
          <mxGeometry x="63" y="134" width="120" height="50" as="geometry" />
        </mxCell>
      </root>
    </mxGraphModel>
  </diagram>
</mxfile>
